<svg width="500" height="500" viewBox="0 0 500 500" fill="none" xmlns="http://www.w3.org/2000/svg">
<path d="M239.021 424.754C346.311 424.754 433.287 420.758 433.287 415.828C433.287 410.898 346.311 406.902 239.021 406.902C131.731 406.902 44.755 410.898 44.755 415.828C44.755 420.758 131.731 424.754 239.021 424.754Z" fill="#EAF0FF"/>
<path d="M268.277 56.115C178.739 91.873 66.234 29.956 47.924 93.229C29.613 156.502 48.709 300.555 288.476 264.305C528.242 228.056 504.556 -38.244 268.277 56.115Z" fill="#EAF0FF"/>
<path d="M254.801 106.363C251.296 98.209 229.464 95.225 221.437 110.32C213.164 125.878 200.607 130.321 176.326 132.831C131.352 137.481 141.493 240.953 229.439 194.483C291.003 161.953 274.493 109.96 254.801 106.363Z" fill="#232E4C"/>
<path d="M287.539 229.565C287.954 229.146 285.221 227.091 283.619 225.807C283.446 225.57 283.278 225.347 283.127 225.158C283.127 225.158 279.049 224.876 279.459 227.051C279.869 229.226 283.254 234.258 285.736 234.337C287.76 234.401 287.208 232.118 286.011 229.715C286.632 229.914 287.189 229.919 287.539 229.565Z" fill="#FFA59C"/>
<path d="M267.433 229.743L245.774 234.9C245.927 233.998 246.077 233.503 246.228 233.505L211.635 227.934C209.305 243.991 208.537 277.269 208.187 289.566C207.96 297.541 208.137 304.124 208.635 309.51C206.292 318.832 207.562 339.332 208.621 356.32C209.784 374.972 213.438 415.452 221.317 412.938C228.787 410.555 235.926 319.885 237.846 307.113C237.905 306.723 237.937 306.345 237.955 305.974C240.294 295.331 241.885 280.118 243.059 266.371C247.647 278.044 252.454 289.389 254.843 295.401C256.146 298.682 257.782 303.303 259.893 307.914C254.713 316.255 248.857 329.904 244.259 343.177C238.136 360.852 229.386 391.54 237.476 392.665C245.146 393.731 281.74 331.831 287.778 319.484C287.789 319.462 287.796 319.44 287.806 319.418C297.174 301.556 267.433 229.743 267.433 229.743Z" fill="#232E4C"/>
<path d="M234.657 386.614C233.197 387.314 232.259 391.161 230.82 394.468C229.427 397.67 234.263 397.63 237.579 399.356C245.296 403.375 256.464 406.977 251.506 402.592C244.84 396.697 243.239 390.986 241.726 389.492C241.29 389.033 235.163 386.712 234.657 386.614Z" fill="#114DBD"/>
<path d="M283.165 225.205L282.539 224.129L281.313 221.958C280.506 220.506 279.728 219.039 278.966 217.57C277.443 214.633 276.025 211.659 274.712 208.687C274.025 207.216 273.431 205.716 272.783 204.257C272.198 202.777 271.585 201.313 271.054 199.857C270.774 199.129 270.504 198.403 270.28 197.677C270.043 196.957 269.758 196.239 269.56 195.526L268.299 191.095C267.416 188.022 266.671 184.91 265.905 181.811C265.744 181.102 265.594 180.392 265.438 179.682C264.345 166.418 262.788 154.753 260.374 150.277C258.993 147.719 256.521 145.723 253.457 144.277C246.14 140.802 235.479 140.435 228.41 142.842C225.96 143.673 223.932 144.849 222.637 146.338C211.813 158.791 208.123 217.303 210.907 230.965C211.749 235.066 269.105 237.882 268.415 229.746C268.123 226.359 267.855 221.328 267.559 215.402C269.413 217.565 271.312 219.668 273.266 221.695C274.471 222.93 275.684 224.15 276.919 225.344L278.783 227.123L279.728 228.002C280.039 228.3 280.44 228.52 281.236 228.425C282.109 228.318 282.894 227.732 283.206 226.845L283.25 226.719C283.511 225.981 283.379 225.557 283.165 225.205Z" fill="#F15731"/>
<path d="M239.584 244.303L202.336 251.408C201.686 251.532 201.058 251.105 200.934 250.455L195.351 221.186C195.227 220.536 195.654 219.908 196.304 219.783L233.552 212.678C234.202 212.554 234.83 212.981 234.954 213.631L240.537 242.9C240.661 243.551 240.234 244.179 239.584 244.303Z" fill="#0F4396"/>
<path d="M238.487 242.987L201.164 250.107C200.534 250.227 199.926 249.814 199.806 249.184L194.585 221.814C194.465 221.184 194.878 220.576 195.508 220.456L232.831 213.336C233.461 213.216 234.069 213.629 234.189 214.259L239.41 241.629C239.53 242.258 239.116 242.867 238.487 242.987Z" fill="white"/>
<path d="M234.78 212.718C234.752 212.572 234.611 212.476 234.466 212.504L227.015 213.925L189.767 221.03C189.117 221.154 188.69 221.782 188.814 222.433L194.397 251.702C194.521 252.352 195.149 252.779 195.799 252.655L233.047 245.55C233.697 245.426 234.124 244.798 234 244.147L228.495 215.291L234.768 214.094C234.914 214.066 235.01 213.925 234.982 213.78L234.78 212.718Z" fill="#114DBD"/>
<path d="M219.46 231.755C220.308 236.203 217.391 240.496 212.943 241.345C208.495 242.193 204.202 239.275 203.353 234.828C202.505 230.38 205.422 226.086 209.87 225.238C214.318 224.389 218.612 227.307 219.46 231.755Z" fill="#232E4C"/>
<path d="M213.826 242.69C213.673 242.206 213.514 241.766 213.357 241.399C213.357 241.399 209.505 240.03 209.315 242.235C209.124 244.441 209.348 250.564 212.282 250.952C214.301 251.219 214.799 249.224 214.643 246.888C215.35 247.632 215.955 248.013 215.999 247.335C216.095 245.866 214.675 243.28 213.826 242.69Z" fill="#FFA59C"/>
<path d="M233.136 156.315L232.273 157.231L231.327 158.273C230.691 158.976 230.054 159.692 229.431 160.42C228.186 161.88 226.947 163.356 225.779 164.881C223.419 167.908 221.236 171.052 219.3 174.27C215.464 180.714 212.596 187.546 211.888 194.391C211.747 195.965 211.666 198.146 211.566 200.111C211.512 202.116 211.435 204.131 211.409 206.15C211.355 210.189 211.393 214.252 211.503 218.337C211.604 222.424 211.839 226.526 212.206 230.629C212.378 232.683 212.61 234.731 212.864 236.78C212.997 237.801 213.132 238.827 213.289 239.843L213.528 241.366C213.612 241.871 213.592 242.41 213.11 243.076L213.017 243.205C212.456 243.981 211.447 244.241 210.599 243.89C209.805 243.561 209.484 243.1 209.28 242.602L208.671 241.112C208.268 240.118 207.89 239.12 207.511 238.118C206.767 236.114 206.044 234.098 205.379 232.063C204.038 227.995 202.84 223.868 201.78 219.689C200.784 215.5 199.911 211.262 199.306 206.97C199.001 204.825 198.734 202.668 198.534 200.504C198.38 198.296 198.103 196.303 198.157 193.705C198.271 188.791 199.072 183.954 200.525 179.443C201.94 174.91 203.851 170.64 206.115 166.647C208.341 162.627 210.948 158.905 213.742 155.369C215.166 153.622 216.615 151.902 218.169 150.265C218.946 149.446 219.728 148.632 220.544 147.835L221.799 146.651C222.248 146.237 222.615 145.903 223.192 145.397C226.258 142.713 230.919 143.023 233.603 146.089C236.122 148.966 236.004 153.248 233.446 155.983L233.136 156.315Z" fill="#F15731"/>
<path d="M246.048 141.964L246.015 141.323L245.365 130.633C245.262 128.876 244.45 127.296 243.239 126.13C242.013 124.978 240.389 124.24 238.632 124.225C235.635 124.195 233.258 126.277 232.77 129.068C232.681 129.511 232.637 129.983 232.667 130.456L233.337 141.695C231.579 141.953 229.91 142.331 228.409 142.842C230.233 145.022 234.218 149.192 241.884 149.799C249.573 150.408 252.744 147.321 253.456 144.277C251.232 143.22 248.696 142.455 246.048 141.964Z" fill="#FFA59C"/>
<path d="M246.015 141.323C244.06 141.71 240.943 141.193 238.359 138.52C236.321 136.423 233.642 131.563 232.771 129.068C233.258 126.277 235.635 124.196 238.633 124.225C240.39 124.24 242.014 124.978 243.24 126.13C244.451 127.296 245.263 128.876 245.366 130.633L246.015 141.323Z" fill="#ED6666"/>
<path d="M253.01 124.328C252.903 124.273 252.8 124.252 252.695 124.214C254.163 115.378 249.519 107.106 241.978 105.478C234.166 103.791 230.014 110.691 228.029 119.88C226.044 129.069 226.978 137.068 234.79 138.755C240.442 139.976 246.15 137.118 249.633 131.971C251.312 132.521 253.307 131.587 254.276 129.692C255.333 127.627 254.765 125.225 253.01 124.328Z" fill="#FFA59C"/>
<path d="M240.771 119.885C240.772 120.338 240.406 120.707 239.953 120.708C239.5 120.709 239.131 120.343 239.13 119.89C239.129 119.437 239.495 119.068 239.948 119.067C240.401 119.065 240.77 119.432 240.771 119.885Z" fill="#232E4C"/>
<path d="M231.671 117.63C231.672 118.083 231.306 118.452 230.852 118.454C230.399 118.455 230.03 118.089 230.029 117.635C230.028 117.182 230.394 116.813 230.847 116.812C231.301 116.81 231.669 117.176 231.671 117.63Z" fill="#232E4C"/>
<path d="M244.1 120.142C243.987 120.142 243.881 120.07 243.844 119.957C242.643 116.353 238.601 116.587 238.426 116.6C238.286 116.617 238.15 116.498 238.139 116.349C238.128 116.201 238.24 116.072 238.388 116.061C238.435 116.057 243.022 115.78 244.356 119.785C244.403 119.927 244.327 120.08 244.185 120.126C244.156 120.138 244.128 120.142 244.1 120.142Z" fill="#232E4C"/>
<path d="M227.495 115.775C227.445 115.775 227.396 115.761 227.352 115.734C227.226 115.654 227.188 115.488 227.267 115.362C229.205 112.288 233.403 114.123 233.446 114.141C233.582 114.202 233.642 114.361 233.582 114.497C233.521 114.634 233.363 114.694 233.226 114.634C233.071 114.565 229.41 112.976 227.725 115.65C227.672 115.73 227.584 115.775 227.495 115.775Z" fill="#232E4C"/>
<path d="M232.752 125.277C230.005 124.878 229.64 124.07 229.593 123.833C229.571 123.72 229.603 123.603 229.68 123.517C230.918 122.129 233.002 118.845 233.024 118.812L233.647 119.208C233.565 119.338 231.705 122.269 230.422 123.788C230.636 123.958 231.247 124.314 232.858 124.548L232.752 125.277Z" fill="#ED6666"/>
<path d="M215.631 406.088C214.538 407.283 215.14 410.882 215.04 414.486C214.943 417.976 219.415 416.134 223.135 416.498C231.794 417.345 243.5 416.517 237.263 414.3C228.879 411.32 226.64 406.914 224.68 406.093C224.104 405.831 216.137 405.99 215.631 406.088Z" fill="#114DBD"/>
<path d="M240.322 128.845L233.038 129.954C233.038 129.954 235.605 131.918 238.17 131.568C240.807 131.208 240.322 128.845 240.322 128.845Z" fill="white"/>
<path d="M242.81 103.935L240.676 104.148C229.482 102.179 226.835 114.496 226.835 114.496C230.458 111.415 238.487 111.246 242.783 111.47C244.737 119.921 250.714 131.49 257.557 124.912C266.731 116.093 242.81 103.935 242.81 103.935Z" fill="#232E4C"/>
<path d="M240.427 119.554C240.407 119.554 240.386 119.552 240.364 119.547C239.711 119.392 239.381 118.946 239.269 118.762C239.192 118.636 239.229 118.469 239.354 118.391C239.478 118.311 239.642 118.345 239.721 118.469C239.723 118.471 239.729 118.48 239.73 118.483C239.79 118.582 240.021 118.912 240.489 119.023C240.634 119.058 240.723 119.203 240.689 119.348C240.66 119.47 240.549 119.554 240.427 119.554Z" fill="#232E4C"/>
<path d="M231.327 117.298C231.307 117.298 231.286 117.296 231.264 117.291C230.611 117.136 230.28 116.69 230.168 116.506C230.091 116.38 230.128 116.213 230.253 116.135C230.376 116.056 230.54 116.089 230.62 116.213C230.622 116.215 230.628 116.224 230.629 116.227C230.689 116.326 230.92 116.656 231.389 116.767C231.534 116.802 231.623 116.947 231.589 117.092C231.56 117.214 231.449 117.298 231.327 117.298Z" fill="#232E4C"/>
<path d="M89.555 217.91C89.531 217.91 89.506 217.909 89.482 217.906C89.052 217.867 88.736 217.486 88.775 217.056C92.838 172.971 109.48 151.085 122.725 140.488C137.138 128.957 150.401 127.937 150.958 127.899C151.394 127.882 151.762 128.196 151.791 128.627C151.82 129.058 151.495 129.431 151.064 129.46C150.931 129.469 137.658 130.508 123.621 141.775C110.646 152.189 94.339 173.728 90.333 217.2C90.295 217.605 89.954 217.91 89.555 217.91Z" fill="#92A9E8"/>
<path d="M219.83 190.638C220.417 190.277 220.805 189.834 220.763 189.309C220.713 188.686 217.179 189.458 215.04 189.856C214.726 189.831 214.433 189.813 214.174 189.803C214.174 189.803 211.127 192.882 213.157 194.057C215.187 195.232 221.568 195.994 223.348 194.056C224.799 192.477 222.587 191.339 219.83 190.638Z" fill="#FFA59C"/>
<path d="M187.455 297.162C187.454 297.157 187.453 297.152 187.452 297.146C184.781 268.078 164.209 218.408 164.209 218.408L141.257 223.873C141.419 222.918 141.578 222.392 141.738 222.395L105.08 216.491C102.612 233.506 102.071 268.78 101.427 281.802C101.058 289.256 101.66 295.775 102.939 301.205C102.693 301.387 102.445 301.559 102.202 301.753C95.259 307.308 84.762 326.011 76.726 344.111C68.69 362.21 52.312 402.045 60.948 403.539C69.136 404.955 120.222 323.23 128.278 312.166C128.365 312.046 128.431 311.929 128.512 311.809C128.588 311.698 128.666 311.601 128.741 311.487C128.829 311.355 128.914 311.207 129.001 311.064C129.002 311.062 129.003 311.061 129.004 311.059C133.802 303.099 136.562 278.502 138.379 257.223C143.241 269.592 148.335 281.615 150.866 287.986C152.741 292.706 155.26 300.045 158.816 306.42C158.79 316.765 161.725 333.32 165.673 348.669C170.611 367.867 182.639 416.907 190.445 413.165C197.845 409.617 189.35 311.602 187.455 297.162Z" fill="#F15731"/>
<path d="M215.609 191.035L215.469 190.784C215.019 189.975 214.55 189.857 214.083 189.794L212.679 189.521C211.743 189.324 210.808 189.127 209.878 188.894C208.018 188.457 206.179 187.926 204.362 187.383C200.726 186.292 197.208 184.93 193.818 183.481C190.426 182.034 187.176 180.43 184.079 178.717L181.806 177.372L179.782 176.118C178.498 175.212 177.238 174.276 176.065 173.179C171.304 168.909 167.518 163.12 164.456 156.829C163.722 155.233 162.959 153.643 162.294 151.994C161.672 150.464 161.088 148.912 160.518 147.349C159.359 141.408 158.095 136.726 156.733 134.201C150.562 122.76 123.736 121.977 116.742 130.02C105.263 143.222 101.356 205.221 104.311 219.699C105.198 224.044 169.263 226.875 168.522 218.251C167.93 211.363 166.892 198.092 165.455 183.993C165.793 184.267 166.111 184.558 166.458 184.823C168.26 186.269 170.264 187.509 172.297 188.668C172.81 188.953 173.345 189.206 173.868 189.473C174.389 189.718 174.933 190.041 175.432 190.202L178.469 191.351C182.538 192.773 186.686 193.759 190.833 194.388C194.984 195.015 199.146 195.215 203.255 195.211C205.314 195.188 207.359 195.13 209.399 194.979C210.417 194.917 211.436 194.818 212.452 194.717L213.979 194.542C214.489 194.503 214.999 194.397 215.526 193.577C216.004 192.837 216.068 191.86 215.609 191.035Z" fill="#114DBD"/>
<path d="M129.564 254.959L90.625 248.934C88.504 248.606 86.926 246.585 87.117 244.443L89.554 217.128C89.745 214.986 91.636 213.502 93.757 213.83L132.696 219.855C134.817 220.183 136.395 222.204 136.204 224.346L133.767 251.661C133.576 253.803 131.684 255.287 129.564 254.959Z" fill="#92A9E8"/>
<path d="M85.245 248.101L124.184 254.126C126.305 254.454 128.42 253.005 128.886 250.906L134.818 224.132C135.283 222.033 133.929 220.046 131.808 219.718L92.869 213.693C90.748 213.365 88.633 214.814 88.168 216.914L82.236 243.688C81.77 245.787 83.124 247.773 85.245 248.101Z" fill="#B2C3FB"/>
<path d="M86.652 233.24L125.591 239.265C127.712 239.593 129.953 238.163 130.573 236.088L134.245 224.043C134.864 221.967 133.636 220.001 131.515 219.673L92.576 213.648C90.455 213.32 88.213 214.75 87.594 216.825L83.922 228.87C83.303 230.945 84.531 232.912 86.652 233.24Z" fill="#92A9E8"/>
<path d="M141.56 125.618C141.779 129.326 138.931 132.33 135.223 132.315C131.515 132.284 128.323 129.233 128.104 125.524L127.369 113.195C127.338 112.694 127.385 112.194 127.479 111.724C127.995 108.767 130.514 106.561 133.691 106.592C135.553 106.608 137.274 107.39 138.573 108.61C139.856 109.846 140.717 111.52 140.826 113.382L141.515 124.71L141.56 125.618Z" fill="#FFA59C"/>
<path d="M141.514 124.711C139.442 125.121 136.139 124.573 133.401 121.741C131.242 119.519 128.402 114.369 127.479 111.725C127.995 108.768 130.514 106.562 133.691 106.593C135.553 106.609 137.274 107.391 138.573 108.611C139.856 109.847 140.717 111.521 140.826 113.383L141.514 124.711Z" fill="#ED6666"/>
<path d="M151.696 104.429C151.696 114.391 148.94 122.467 140.47 122.467C132 122.467 125.134 114.391 125.134 104.429C125.134 94.467 132 86.391 140.47 86.391C148.94 86.391 151.696 94.467 151.696 104.429Z" fill="#FFA59C"/>
<path d="M146.949 82.007C136.217 73.091 121.585 75.893 124.799 83.716L120.633 80.943C120.633 80.943 121.123 84.102 123.241 84.771C120.761 85.838 119.296 88.055 120.774 91.651C124.686 101.169 124.425 103.194 124.425 103.194C128.106 103.44 133.386 97.653 134.956 92.405C145.442 96.468 162.371 95.789 162.954 85.441C160.738 87.483 155.629 88.276 146.949 82.007Z" fill="#232E4C"/>
<path d="M127.521 103.647C128.261 106.429 128.091 108.89 125.726 109.518C123.36 110.147 120.843 108.402 120.103 105.619C119.363 102.837 120.681 100.071 123.046 99.442C125.411 98.814 126.781 100.864 127.521 103.647Z" fill="#FFA59C"/>
<path d="M138.497 101.584C138.394 102.053 138.691 102.517 139.161 102.62C139.63 102.723 140.094 102.426 140.197 101.956C140.3 101.487 140.003 101.023 139.533 100.92C139.064 100.818 138.6 101.115 138.497 101.584Z" fill="#232E4C"/>
<path d="M148.428 101.284C148.325 101.753 148.622 102.217 149.092 102.32C149.561 102.423 150.025 102.126 150.128 101.656C150.231 101.187 149.934 100.723 149.464 100.62C148.995 100.518 148.531 100.815 148.428 101.284Z" fill="#232E4C"/>
<path d="M141.741 98.432L135.912 100.826C136.647 96.03 141.741 98.432 141.741 98.432Z" fill="#232E4C"/>
<path d="M148.249 97.463L154.048 99.928C153.372 95.123 148.249 97.463 148.249 97.463Z" fill="#232E4C"/>
<path d="M146.519 108.997C146.241 108.997 145.935 108.986 145.597 108.963L145.65 108.183C147.348 108.298 148.061 108.076 148.339 107.932C147.353 106.07 146.085 102.629 146.028 102.475L146.762 102.205C146.777 102.244 148.2 106.112 149.172 107.826C149.233 107.932 149.239 108.061 149.192 108.174C149.102 108.383 148.654 108.997 146.519 108.997Z" fill="#ED6666"/>
<path d="M138.948 116.499C136.296 114.078 136.181 111.971 136.178 111.883C136.172 111.735 136.25 111.596 136.38 111.525C136.509 111.453 136.67 111.462 136.791 111.546C136.818 111.565 139.592 113.419 143.494 113.404L143.498 114.186C140.575 114.166 138.301 113.262 137.157 112.665C137.423 113.417 138.042 114.614 139.474 115.921L138.948 116.499Z" fill="#ED6666"/>
<path d="M184.691 408.661C183.811 410.134 185.234 414.081 185.899 417.844C186.543 421.487 190.792 418.621 194.731 418.206C203.9 417.239 215.874 413.882 208.927 412.912C199.588 411.607 194.831 407.5 192.62 407.066C191.966 406.915 185.194 408.451 184.691 408.661Z" fill="#232E4C"/>
<path d="M58.832 394.672C57.238 395.309 56.156 399.021 54.401 402.416C52.702 405.702 57.818 406.003 61.201 408.063C69.076 412.858 80.629 417.458 75.697 412.47C69.067 405.766 68.959 400.53 67.466 398.843C67.037 398.327 59.36 394.811 58.832 394.672Z" fill="#232E4C"/>
<path d="M107.403 232.127C107.241 231.614 107.072 231.148 106.906 230.759C106.906 230.759 102.825 229.308 102.623 231.645C102.421 233.982 102.658 240.471 105.768 240.882C107.908 241.165 108.436 239.051 108.27 236.576C109.019 237.364 109.66 237.769 109.707 237.05C109.808 235.493 108.303 232.753 107.403 232.127Z" fill="#FFA59C"/>
<path d="M127.867 140.598L126.956 141.572L125.951 142.673C125.276 143.417 124.602 144.176 123.941 144.948C122.622 146.496 121.309 148.06 120.071 149.675C117.57 152.883 115.257 156.214 113.205 159.624C109.14 166.453 106.101 173.692 105.35 180.946C105.201 182.615 105.115 184.925 105.008 187.008C104.951 189.133 104.869 191.268 104.842 193.408C104.785 197.688 104.825 201.994 104.941 206.323C105.048 210.654 105.297 215.001 105.686 219.349C105.869 221.526 106.114 223.696 106.384 225.867C106.525 226.949 106.668 228.036 106.834 229.113L107.088 230.727C107.177 231.262 107.155 231.833 106.645 232.539L106.546 232.676C105.952 233.498 104.882 233.774 103.984 233.401C103.142 233.052 102.803 232.564 102.587 232.036L101.942 230.457C101.515 229.403 101.114 228.346 100.712 227.285C99.924 225.161 99.157 223.024 98.453 220.868C97.031 216.557 95.762 212.184 94.639 207.755C93.584 203.316 92.658 198.825 92.017 194.277C91.694 192.004 91.411 189.719 91.199 187.425C91.036 185.085 90.743 182.973 90.8 180.221C90.92 175.014 91.77 169.888 93.31 165.108C94.809 160.304 96.834 155.779 99.234 151.549C101.593 147.289 104.356 143.345 107.316 139.598C108.825 137.747 110.361 135.924 112.007 134.19C112.83 133.322 113.66 132.46 114.524 131.615L115.851 130.357C116.324 129.916 116.715 129.564 117.331 129.032C120.601 126.21 125.539 126.573 128.361 129.843C130.99 132.889 130.855 137.382 128.181 140.264L127.867 140.598Z" fill="#114DBD"/>
<path d="M134.908 229.083C134.82 229.083 134.731 229.068 134.643 229.037C134.237 228.891 134.026 228.443 134.171 228.036C155.687 168.067 150.293 129.18 150.236 128.794C150.173 128.366 150.468 127.969 150.895 127.905C151.309 127.842 151.719 128.136 151.783 128.564C151.842 128.953 157.303 168.191 135.643 228.564C135.53 228.884 135.229 229.083 134.908 229.083Z" fill="#92A9E8"/>
<path d="M419.542 129.564C423.866 130.104 433.489 130.373 437.266 136.848C441.043 143.323 443.741 150.337 442.032 150.517C440.323 150.697 421.258 148.179 421.258 148.179L419.542 129.564Z" fill="#92A9E8"/>
<path d="M395.418 131.61C414.784 130.194 431.511 129.66 436.547 138.291C441.583 146.921 457.77 213.112 430.612 206.456C403.453 199.8 399.545 205.244 397.812 188.133C396.079 171.021 395.418 131.61 395.418 131.61Z" fill="#B2C3FB"/>
<path d="M432.482 214.396L399.366 215.306L381.269 202.752C382.675 204.061 331.862 259.505 328.858 275.96C328.315 278.934 328.297 281.573 328.698 283.868C328.713 283.967 328.732 284.067 328.751 284.167C328.818 284.515 328.896 284.853 328.984 285.184C328.986 285.189 328.987 285.195 328.988 285.2C329.248 286.176 329.594 287.076 330.02 287.898C336.648 304.437 365.558 382.753 373.581 383.269C382.328 383.832 375.696 349.008 372.104 329.533C369.007 312.74 365.609 293.99 361.235 284.639C363.68 282.56 366.157 280.131 368.628 277.295C372.136 273.269 378.329 265.929 385.106 257.707C382.44 271.643 380.342 286.392 380.574 297.495C380.574 297.5 380.573 297.506 380.573 297.511C380.302 311.951 391.777 408.832 399.614 410.347C407.881 411.946 408.692 364.435 409.388 341.887C409.879 325.988 411.279 309.276 410.322 299.246C413.221 292.117 414.94 284.282 416.303 279.193C419.752 266.308 430.139 231.503 432.482 214.396Z" fill="#114DBD"/>
<path d="M377.908 372.147C379.049 372.619 380.379 375.77 383.075 378.477C385.686 381.098 380.898 382.927 378.293 385.911C372.23 392.857 360.594 401.366 363.794 395.124C368.095 386.733 368.343 381.151 369.259 379.093C369.512 378.472 377.446 372.439 377.908 372.147Z" fill="#F15731"/>
<path d="M342.843 209.511C340.085 211.323 333.656 216.876 337.208 217.907C339.735 218.641 344.794 214.678 345.92 212.62C347.045 210.562 342.843 209.511 342.843 209.511Z" fill="#FFA59C"/>
<path d="M342.523 209.855C340.576 210.613 336.654 211.912 336.953 212.507C337.724 214.04 341.931 212.483 342.823 211.837C343.715 211.192 342.523 209.855 342.523 209.855Z" fill="#FFA59C"/>
<path d="M420.414 130.021C413.42 121.977 386.595 122.76 380.424 134.202C378.602 137.579 376.956 144.809 375.503 153.758C375.148 154.955 374.797 156.153 374.415 157.339C372.313 164.043 369.773 170.557 366.782 176.784C366.078 178.373 365.211 179.841 364.435 181.385L363.25 183.606L362.658 184.717L362 185.798C360.324 188.741 358.376 191.601 356.309 194.445C354.227 197.274 352.023 200.109 349.588 202.772C348.382 204.116 347.133 205.434 345.838 206.708C345.193 207.348 344.534 207.976 343.868 208.591L342.862 209.503C342.512 209.781 342.212 210.144 342.244 211.021L342.254 211.314C342.288 212.196 342.795 213.03 343.644 213.442C344.475 213.845 344.965 213.719 345.396 213.496L346.723 212.887C347.603 212.473 348.473 212.047 349.336 211.602C351.066 210.72 352.766 209.778 354.447 208.785C357.789 206.778 361.09 204.606 364.188 202.112C365.767 200.897 367.229 199.535 368.719 198.182C369.322 197.59 369.918 196.988 370.51 196.38C369.678 205.521 369.047 213.443 368.634 218.252C367.893 226.876 431.957 224.045 432.845 219.7C435.8 205.222 431.893 143.223 420.414 130.021Z" fill="#232E4C"/>
<path d="M432.772 182.053C432.772 182.053 427.734 189.487 419.069 182.053C412.27 176.219 412.978 164.522 415.609 153.793L406.985 149.28C402.428 171.13 407.773 181.104 414.661 186.79C421.737 192.631 430.97 191.706 433.791 188.229C433.735 185.35 432.772 182.053 432.772 182.053Z" fill="#92A9E8"/>
<path d="M395.598 125.618C395.379 129.326 398.227 132.33 401.935 132.315C405.643 132.284 408.835 129.233 409.054 125.524L409.789 113.195C409.82 112.694 409.773 112.194 409.679 111.724C409.163 108.767 406.644 106.561 403.467 106.592C401.605 106.608 399.884 107.39 398.585 108.61C397.302 109.846 396.442 111.52 396.332 113.382L395.643 124.71L395.598 125.618Z" fill="#FFA59C"/>
<path d="M395.645 124.711C397.717 125.121 401.02 124.573 403.758 121.741C405.917 119.519 408.757 114.369 409.68 111.725C409.164 108.768 406.645 106.562 403.468 106.593C401.606 106.609 399.885 107.391 398.586 108.611C397.303 109.847 396.443 111.521 396.333 113.383L395.645 124.711Z" fill="#ED6666"/>
<path d="M385.463 104.429C385.463 114.391 388.219 122.467 396.689 122.467C405.159 122.467 412.025 114.391 412.025 104.429C412.025 94.467 405.159 86.391 396.689 86.391C388.219 86.391 385.463 94.467 385.463 104.429Z" fill="#FFA59C"/>
<path d="M411.664 81.901C405.731 78.383 388.11 76.499 382.68 81.632C376.115 87.837 385.288 91.434 391.535 91.434C391.535 91.434 397.157 90.831 402.732 89.619C400.729 95.856 409.579 100.978 412.025 104.429C415.86 109.84 418.262 94.402 418.502 87.028C418.608 83.734 415.816 80.954 411.664 81.901Z" fill="#F15731"/>
<path d="M409.638 103.647C408.898 106.429 409.068 108.89 411.433 109.518C413.798 110.147 416.316 108.402 417.056 105.619C417.796 102.837 416.478 100.071 414.113 99.442C411.747 98.814 410.378 100.864 409.638 103.647Z" fill="#FFA59C"/>
<path d="M398.661 101.584C398.764 102.053 398.467 102.517 397.997 102.62C397.528 102.723 397.064 102.426 396.961 101.956C396.858 101.487 397.155 101.023 397.625 100.92C398.095 100.818 398.558 101.115 398.661 101.584Z" fill="#232E4C"/>
<path d="M388.731 101.284C388.834 101.753 388.537 102.217 388.067 102.32C387.598 102.423 387.134 102.126 387.031 101.656C386.928 101.187 387.225 100.723 387.695 100.62C388.164 100.518 388.628 100.815 388.731 101.284Z" fill="#232E4C"/>
<path d="M395.418 97.724L401.246 100.118C400.512 95.322 395.418 97.724 395.418 97.724Z" fill="#F15731"/>
<path d="M388.909 96.754L383.11 99.219C383.786 94.414 388.909 96.754 388.909 96.754Z" fill="#F15731"/>
<path d="M390.639 108.997C388.504 108.997 388.056 108.383 387.966 108.174C387.918 108.062 387.925 107.933 387.986 107.826C388.958 106.111 390.382 102.243 390.397 102.205L391.131 102.475C391.074 102.628 389.802 106.08 388.815 107.94C389.075 108.068 389.782 108.299 391.508 108.183L391.561 108.963C391.223 108.986 390.917 108.997 390.639 108.997Z" fill="#ED6666"/>
<path d="M393.661 113.795C390.16 111.627 400.589 111.868 400.589 111.868C400.589 111.868 398.91 117.045 393.661 113.795Z" fill="white"/>
<path d="M404.247 404.497C405.298 405.693 405.537 409.917 405.761 413.672C405.982 417.359 399.883 415.708 395.878 416.324C386.555 417.758 374.143 417.61 381.014 414.877C390.251 411.204 394.108 405.948 396.28 404.957C396.92 404.644 403.717 404.425 404.247 404.497Z" fill="#F15731"/>
<path d="M414.662 162.128C414.633 161.031 413.168 158.27 411.811 157.501C411.184 157.146 411.17 157.903 411.419 158.962C409.441 157.465 407.383 156.746 406.446 158.691C405.084 161.516 410.378 165.275 412.443 166.388C414.508 167.502 415.534 163.293 415.534 163.293C415.299 162.941 415.002 162.544 414.662 162.128Z" fill="#FFA59C"/>
<path d="M447.673 161.43C446.28 156.993 444.185 153.682 442.041 150.59C439.892 147.51 437.521 144.808 435.104 142.227C432.668 139.665 430.141 137.269 427.52 135.009C426.207 133.881 424.888 132.769 423.521 131.711C422.14 130.625 420.828 129.64 419.259 128.56C415.467 125.942 409.982 127.087 407.727 131.66C406.174 134.81 407.06 138.63 409.708 140.937L409.856 141.066L413.292 144.059L416.775 147.164C419.073 149.253 421.328 151.364 423.465 153.514C425.614 155.649 427.616 157.863 429.405 160.04C431.16 162.208 432.662 164.497 433.429 166.28C433.817 167.166 433.978 167.851 434.029 168.121L434.139 168.777L432.837 168.907C432.365 168.954 431.893 168.949 431.426 168.87C429.046 168.464 426.317 167.613 423.691 166.532C422.231 165.945 420.768 165.294 419.319 164.595C418.594 164.246 417.872 163.883 417.154 163.511L416.083 162.944C415.746 162.734 415.355 162.58 414.553 162.945L414.322 163.05C413.528 163.417 412.915 164.146 412.734 165.07C412.558 165.965 412.803 166.331 413.104 166.637L413.962 167.6C414.539 168.237 415.125 168.867 415.723 169.488C416.92 170.731 418.158 171.95 419.463 173.133C420.772 174.31 422.14 175.459 423.622 176.553C425.103 177.655 426.701 178.683 428.553 179.577C430.414 180.456 432.522 181.247 435.348 181.425C436.763 181.478 438.404 181.323 440.111 180.722C441.818 180.119 443.513 179.006 444.738 177.666C445.976 176.334 446.806 174.894 447.389 173.565C447.693 172.853 447.911 172.33 448.117 171.536C448.321 170.77 448.453 170.003 448.532 169.258C448.84 166.245 448.349 163.64 447.673 161.43Z" fill="#232E4C"/>
<path d="M423.474 131.86C423.742 131.283 423.673 130.609 423.286 130.104C422.113 128.571 419.298 125.541 415.323 125.466C414.693 125.454 414.115 125.853 413.892 126.442C410.563 135.244 408.341 142.781 406.986 149.28L415.61 153.793C418.06 143.802 422.178 134.65 423.474 131.86Z" fill="#92A9E8"/>
</svg>
